Coordinates
version=1
nRows=27
nColumns=12
inDegrees=yes

Units are S.I. units (second, meters, Newtons, ...)
Angles are in degrees

endheader
time	SC_y	SC_z	SC_x	AC_y	AC_z	AC_x	GH_y	GH_z	GH_yy	EL_x	PS_y
       0.0              -39.97          -3.49          80.52          62.35         -17.44          11.69          16.96          36.34          43.73          80.17          125.0
   0.03113              -39.97         -3.487          80.51          62.35         -17.44          11.69          16.97          36.34          43.71          80.17          125.0
   0.06226              -39.97         -3.484           80.5          62.34         -17.44          11.69          16.99          36.35          43.68          80.18          125.0
   0.09339              -39.98         -3.481          80.49          62.34         -17.44          11.69           17.0          36.36          43.66          80.18          125.0
    0.1245              -39.98         -3.478          80.49          62.34         -17.44          11.68          17.02          36.37          43.63          80.19          124.9
    0.1557              -39.98         -3.475          80.48          62.34         -17.44          11.68          17.04          36.38           43.6           80.2          124.9
    0.1868              -39.99         -3.471          80.47          62.34         -17.44          11.68          17.05          36.39          43.56           80.2          124.9
    0.2179              -39.99         -3.467          80.46          62.33         -17.43          11.68          17.07           36.4          43.53          80.21          124.9
     0.249               -40.0         -3.463          80.45          62.33         -17.43          11.68          17.09          36.41          43.49          80.22          124.9
    0.2802               -40.0         -3.458          80.44          62.33         -17.43          11.67          17.12          36.42          43.45          80.23          124.9
    0.3113              -40.01         -3.454          80.43          62.33         -17.43          11.67          17.14          36.43           43.4          80.24          124.9
    0.3424              -40.01         -3.448          80.41          62.32         -17.43          11.67          17.17          36.45          43.36          80.24          124.9
    0.3736              -40.02         -3.443           80.4          62.32         -17.42          11.67          17.19          36.46          43.31          80.26          124.9
    0.4047              -40.02         -3.437          80.39          62.32         -17.42          11.66          17.22          36.48          43.25          80.27          124.8
    0.4358              -40.03          -3.43          80.37          62.31         -17.42          11.66          17.26          36.49          43.19          80.28          124.8
     0.467              -40.04         -3.423          80.35          62.31         -17.41          11.66          17.29          36.51          43.13          80.29          124.8
    0.4981              -40.05         -3.416          80.33           62.3         -17.41          11.65          17.33          36.53          43.06          80.31          124.8
    0.5292              -40.06         -3.407          80.31           62.3         -17.41          11.65          17.37          36.56          42.98          80.32          124.8
    0.5603              -40.07         -3.398          80.29          62.29          -17.4          11.64          17.42          36.58          42.89          80.34          124.7
    0.5915              -40.08         -3.388          80.27          62.29          -17.4          11.64          17.47          36.61           42.8          80.36          124.7
    0.6226              -40.09         -3.377          80.24          62.28         -17.39          11.63          17.52          36.64           42.7          80.38          124.7
    0.6537               -40.1         -3.365          80.21          62.27         -17.39          11.63          17.58          36.67          42.59           80.4          124.7
    0.6849              -40.11         -3.352          80.18          62.27         -17.38          11.62          17.65           36.7          42.47          80.42          124.6
     0.716              -40.13         -3.337          80.14          62.26         -17.38          11.61          17.72          36.74          42.33          80.45          124.6
    0.7471              -40.15          -3.32           80.1          62.25         -17.37           11.6           17.8          36.79          42.18          80.48          124.5
    0.7783              -40.17         -3.302          80.06          62.24         -17.36          11.59          17.89          36.84          42.01          80.51          124.5
    0.8094              -40.19         -3.282          80.01          62.22         -17.35          11.58          17.99          36.89          41.83          80.55          124.4
